<svg preserveAspectRatio="none" overflow="visible" style="display: block;" width="114" height="114" viewBox="0 0 114 114" fill="none" xmlns="http://www.w3.org/2000/svg">
<path id="Authentic audience arc" d="M57.0001 0C71.2815 -6.24258e-07 85.0425 5.36106 95.56 15.0223C106.078 24.6835 112.585 37.9409 113.795 52.1709C115.005 66.4009 110.829 80.5667 102.094 91.8649C93.3583 103.163 80.7 110.771 66.6236 113.182C52.5472 115.593 38.0786 112.632 26.0809 104.885C14.0832 97.1385 5.43073 85.1702 1.83566 71.3487C-1.75941 57.5272 -0.0350842 42.8598 6.66741 30.2489C13.3699 17.638 24.5622 8.00266 38.0294 3.24954L41.0647 11.8496C29.7523 15.8422 20.3507 23.936 14.7206 34.5291C9.09055 45.1222 7.64211 57.4429 10.662 69.0529C13.6818 80.6629 20.9499 90.7164 31.028 97.2237C41.1061 103.731 53.2597 106.218 65.0838 104.193C76.908 102.167 87.541 95.777 94.8788 86.2865C102.217 76.796 105.724 64.8968 104.708 52.9435C103.692 40.9903 98.2252 29.8541 89.3905 21.7387C80.5557 13.6233 68.9964 9.12 57.0001 9.12L57.0001 0Z" fill="#10B981"/>
</svg>
