<svg preserveAspectRatio="none" overflow="visible" style="display: block;" width="34" height="36" viewBox="0 0 34 36" fill="none" xmlns="http://www.w3.org/2000/svg">
<g id="Brand mark">
<rect width="34" height="36" rx="8" fill="#2A2F5A"/>
<path id="Constellation" d="M23.5 15.3333L22.3542 12.8125L19.8333 11.6667L22.3542 10.5208L23.5 8L24.6458 10.5208L27.1667 11.6667L24.6458 12.8125L23.5 15.3333V15.3333M23.5 28.1667L22.3542 25.6458L19.8333 24.5L22.3542 23.3542L23.5 20.8333L24.6458 23.3542L27.1667 24.5L24.6458 25.6458L23.5 28.1667V28.1667M14.3333 25.4167L12.0417 20.375L7 18.0833L12.0417 15.7917L14.3333 10.75L16.625 15.7917L21.6667 18.0833L16.625 20.375L14.3333 25.4167V25.4167M14.3333 20.9708L15.25 19L17.2208 18.0833L15.25 17.1667L14.3333 15.1958L13.4167 17.1667L11.4458 18.0833L13.4167 19L14.3333 20.9708V20.9708M14.3333 18.0833V18.0833V18.0833V18.0833V18.0833V18.0833V18.0833V18.0833V18.0833V18.0833" fill="#D4AF37"/>
</g>
</svg>
